<svg id="Layer_1" data-name="Layer 1" xmlns="http://www.w3.org/2000/svg" viewBox="0 0 172.3 76.09"><defs><style>.cls-1{fill:#fff;}</style></defs><polygon class="cls-1" points="14.91 17.65 18.79 12.42 16.03 8.67 7.94 8.67 5.19 12.42 9.07 17.65 14.91 17.65"/><polygon class="cls-1" points="14.94 18.86 18.75 66.98 12.18 76.09 5.22 67.41 9.1 18.86 14.94 18.86"/><path class="cls-1" d="M40.41,45.74c-3.16-1-5.57-2.88-6.49-5.17a5.58,5.58,0,0,0-.42,2.1c0,2.54,1.78,4.81,4.55,6.28Z" transform="translate(-33.5 -36.95)"/><path class="cls-1" d="M57.07,40.57c-.93,2.29-3.34,4.18-6.5,5.17L52.94,49c2.76-1.47,4.54-3.74,4.54-6.28A5.57,5.57,0,0,0,57.07,40.57Z" transform="translate(-33.5 -36.95)"/><path class="cls-1" d="M56.35,40.28l.16-.39C54.7,38.16,50.43,37,45.44,37s-9.15,1.18-11,2.87l.18.46a6.42,6.42,0,0,0,1.14,1.8,21.51,21.51,0,0,1,9.67-1.95,21.37,21.37,0,0,1,9.74,2A6.29,6.29,0,0,0,56.35,40.28Z" transform="translate(-33.5 -36.95)"/><polygon class="cls-1" points="20.76 38.66 16.34 27.79 15.56 19.1 24.31 36.8 23.64 39.51 20.76 38.66"/><path class="cls-1" d="M96.27,49.58a11.05,11.05,0,0,0-.41-3,3.4,3.4,0,0,0-1.27-1.83,4,4,0,0,0-2.41-.57H89.87l0,16.64c0,.57,0,1.09,0,1.55s0,.82-.08,1.1c.4,0,.84-.07,1.32-.08s.92,0,1.3-.05v1.76H84.24v-1.4a2.67,2.67,0,0,0,1.51-.45A1.91,1.91,0,0,0,86.32,62a11.75,11.75,0,0,0,.13-1.94V44.17l-2.69,0a3.22,3.22,0,0,0-2.85,1.31A7.4,7.4,0,0,0,80,49.58H78.51l.2-6.92H97.59l.19,6.92Z" transform="translate(-33.5 -36.95)"/><path class="cls-1" d="M102.23,63.72a1.69,1.69,0,0,0,1.34-.45A2.15,2.15,0,0,0,104,62a16.92,16.92,0,0,0,.08-1.85V53.54c0-.36,0-.73,0-1.1s0-.77.09-1.2l-1.15,0c-.41,0-.78,0-1.12.05v-1.7a15.22,15.22,0,0,0,2.29-.14,6.55,6.55,0,0,0,1.31-.34,2.16,2.16,0,0,0,.69-.42h1.21V61.1c0,.38,0,.77,0,1.16s0,.8-.09,1.2l1,0,1-.05v1.69h-7.13Zm3.39-17.92a1.85,1.85,0,0,1-1.41-.62,2.2,2.2,0,0,1-.58-1.52,2.11,2.11,0,0,1,.61-1.52,1.87,1.87,0,0,1,1.38-.63,1.78,1.78,0,0,1,1.39.63,2.19,2.19,0,0,1,.56,1.52,2.23,2.23,0,0,1-.56,1.52A1.81,1.81,0,0,1,105.62,45.8Z" transform="translate(-33.5 -36.95)"/><path class="cls-1" d="M121.78,65.58a7.82,7.82,0,0,1-4-1,7.44,7.44,0,0,1-2.8-3,9.39,9.39,0,0,1-1-4.49,9.06,9.06,0,0,1,1-4.2,8.29,8.29,0,0,1,2.84-3.15,7.48,7.48,0,0,1,4.22-1.2,7.6,7.6,0,0,1,2.54.42,5.84,5.84,0,0,1,3.64,3.57,9.3,9.3,0,0,1,.54,3.37l-11,.19a13.89,13.89,0,0,0,.5,3.88,5.22,5.22,0,0,0,1.61,2.62,4.43,4.43,0,0,0,2.92.93,6,6,0,0,0,1.84-.31,7,7,0,0,0,1.85-.88A5.76,5.76,0,0,0,127.92,61l1,.86a7.92,7.92,0,0,1-2.2,2.26,8.74,8.74,0,0,1-2.55,1.15A9.74,9.74,0,0,1,121.78,65.58Zm-3.94-11.14h7.39a6.81,6.81,0,0,0-.33-2.19,3.38,3.38,0,0,0-1-1.55,2.72,2.72,0,0,0-1.8-.58,3.82,3.82,0,0,0-2.78,1.07A5.82,5.82,0,0,0,117.84,54.44Z" transform="translate(-33.5 -36.95)"/><path class="cls-1" d="M161.65,49.58a10.65,10.65,0,0,0-.42-3A3.39,3.39,0,0,0,160,44.71a4,4,0,0,0-2.42-.57h-2.3l0,16.64c0,.57,0,1.09,0,1.55a9.31,9.31,0,0,1-.08,1.1c.41,0,.85-.07,1.33-.08s.91,0,1.29-.05v1.76h-8.12v-1.4a2.66,2.66,0,0,0,1.5-.45A1.92,1.92,0,0,0,151.7,62a13.12,13.12,0,0,0,.12-1.94V44.17l-2.68,0a3.21,3.21,0,0,0-2.85,1.31,7.3,7.3,0,0,0-.9,4.07h-1.5l.19-6.92H163l.19,6.92Z" transform="translate(-33.5 -36.95)"/><path class="cls-1" d="M178.42,63.72a1.75,1.75,0,0,0,1.36-.45,2.23,2.23,0,0,0,.48-1.25c.05-.53.08-1.15.08-1.85l0-4.48a7.32,7.32,0,0,0-.78-3.79A2.66,2.66,0,0,0,177,50.66a5.31,5.31,0,0,0-2.07.52,5.41,5.41,0,0,0-1.68,1.21V61.1c0,.38,0,.77,0,1.16s0,.8-.09,1.2l1,0,1-.05v1.69H168V63.72a1.69,1.69,0,0,0,1.34-.45,2.23,2.23,0,0,0,.48-1.25,16.5,16.5,0,0,0,.1-1.85V45.7c0-.36,0-.73,0-1.1s0-.77.08-1.2l-1.15.05c-.41,0-.78,0-1.12,0V41.8a15.37,15.37,0,0,0,2.3-.14,6.44,6.44,0,0,0,1.33-.34,2.16,2.16,0,0,0,.69-.42h1.18v9.67a9.06,9.06,0,0,1,1.57-1,10.88,10.88,0,0,1,1.78-.72,6.06,6.06,0,0,1,1.71-.27,4.67,4.67,0,0,1,4.08,1.73,9.56,9.56,0,0,1,1.26,5.41V61.1c0,.38,0,.77,0,1.16a9.73,9.73,0,0,1-.11,1.2l1.05,0,1-.05v1.69h-7.16Z" transform="translate(-33.5 -36.95)"/><path class="cls-1" d="M198.67,65.58a7.81,7.81,0,0,1-4-1,7.38,7.38,0,0,1-2.8-3,9.28,9.28,0,0,1-1-4.49,9.07,9.07,0,0,1,1-4.2,8.26,8.26,0,0,1,2.83-3.15,7.52,7.52,0,0,1,4.23-1.2,7.65,7.65,0,0,1,2.54.42,5.86,5.86,0,0,1,3.63,3.57,9.29,9.29,0,0,1,.55,3.37l-11,.19A13.9,13.9,0,0,0,195.1,60a5.16,5.16,0,0,0,1.62,2.62,4.42,4.42,0,0,0,2.91.93,6,6,0,0,0,1.84-.31,7.19,7.19,0,0,0,1.86-.88A6.1,6.1,0,0,0,204.82,61l1,.86a8,8,0,0,1-2.21,2.26,8.58,8.58,0,0,1-2.54,1.15A9.82,9.82,0,0,1,198.67,65.58Zm-3.93-11.14h7.39a6.54,6.54,0,0,0-.34-2.19,3.31,3.31,0,0,0-1-1.55,2.71,2.71,0,0,0-1.79-.58,3.84,3.84,0,0,0-2.79,1.07A5.75,5.75,0,0,0,194.74,54.44Z" transform="translate(-33.5 -36.95)"/><path class="cls-1" d="M109.74,103.46v-1.4a2.71,2.71,0,0,0,1.52-.45,1.86,1.86,0,0,0,.6-1.15,13.22,13.22,0,0,0,.12-2V85.19c0-.47,0-.92,0-1.36s0-.81.06-1.13l-1.18.06-1.16.06V81.06h7.88v1.41a2.49,2.49,0,0,0-1.51.43,1.87,1.87,0,0,0-.61,1.16,12.85,12.85,0,0,0-.12,2v5.12h2.36l3.49-5.6c.32-.49.69-1,1.09-1.56a8.47,8.47,0,0,1,1.15-1.32c-.32,0-.65,0-1,0l-.94.05v-1.7h7.2v1.41a7.9,7.9,0,0,0-2.13.39,5.46,5.46,0,0,0-1.9,1.12,10.4,10.4,0,0,0-2,2.46l-3.11,5A5.7,5.7,0,0,1,121,92.55c.36.43.71.87,1,1.31l3.49,4.71a22,22,0,0,0,1.78,2.14,4.62,4.62,0,0,0,1.42,1.06,3.45,3.45,0,0,0,1.35.29v1.4h-4.26A1.54,1.54,0,0,1,125,103a12.53,12.53,0,0,1-1.17-1.21q-.63-.73-1.2-1.47l-3.62-5c-.36-.49-.73-1-1.1-1.44a4.25,4.25,0,0,0-1.1-1h-1.44v6.34c0,.57,0,1.09,0,1.55a9.31,9.31,0,0,1-.08,1.1c.36,0,.76-.07,1.2-.08s.82,0,1.14,0v1.76Z" transform="translate(-33.5 -36.95)"/><path class="cls-1" d="M134,103.46v-1.34a1.68,1.68,0,0,0,1.34-.45,2.22,2.22,0,0,0,.47-1.25c.05-.53.08-1.15.08-1.85l0-6.66c0-.34,0-.71,0-1.1a7.48,7.48,0,0,1,.11-1.17l-1.17,0c-.39,0-.76,0-1.1,0V88A14.36,14.36,0,0,0,136,87.9a5.66,5.66,0,0,0,1.25-.34,2.21,2.21,0,0,0,.66-.42h1.15c0,.2,0,.38,0,.55s0,.35,0,.54,0,.44.05.74a9.52,9.52,0,0,1,1.53-1,10.73,10.73,0,0,1,1.75-.72,6.1,6.1,0,0,1,1.74-.27,4.75,4.75,0,0,1,4.11,1.73q1.28,1.72,1.27,5.41V99.5c0,.38,0,.77,0,1.16s-.05.8-.09,1.2l1,0,1,0v1.69h-7.13v-1.34a1.68,1.68,0,0,0,1.34-.45,2.22,2.22,0,0,0,.47-1.25c0-.53.08-1.15.08-1.85V94.09a7.59,7.59,0,0,0-.82-3.81A2.67,2.67,0,0,0,142.93,89a4.39,4.39,0,0,0-2,.51,6.08,6.08,0,0,0-1.66,1.25V99.5c0,.38,0,.77,0,1.16s-.06.8-.1,1.2l1,0,1,0v1.69Z" transform="translate(-33.5 -36.95)"/><path class="cls-1" d="M164.05,104a8.26,8.26,0,0,1-4.1-1,7.56,7.56,0,0,1-2.89-2.86A8.23,8.23,0,0,1,156,95.85a9.49,9.49,0,0,1,1.08-4.59A8.25,8.25,0,0,1,160,88.1,7.53,7.53,0,0,1,164,87a8.13,8.13,0,0,1,4.09,1,7.85,7.85,0,0,1,2.9,2.88,8.32,8.32,0,0,1,1.07,4.24A9.6,9.6,0,0,1,171,99.66a8,8,0,0,1-2.86,3.16A7.47,7.47,0,0,1,164.05,104Zm.22-1.6a3.26,3.26,0,0,0,2.42-1A5.32,5.32,0,0,0,168,99a11.63,11.63,0,0,0,.39-3,15.26,15.26,0,0,0-.24-2.71,9.32,9.32,0,0,0-.76-2.41A4.78,4.78,0,0,0,166,89.14a3.06,3.06,0,0,0-2-.62,3.33,3.33,0,0,0-2.44.93,5.45,5.45,0,0,0-1.38,2.38,10.73,10.73,0,0,0-.43,3.09,13.06,13.06,0,0,0,.48,3.58,6.67,6.67,0,0,0,1.49,2.79A3.37,3.37,0,0,0,164.27,102.38Z" transform="translate(-33.5 -36.95)"/><path class="cls-1" d="M183.18,104a6.41,6.41,0,0,1-1.61-.21,3.46,3.46,0,0,1-1.49-.83,4.22,4.22,0,0,1-1.06-1.81,10.7,10.7,0,0,1-.38-3.14l.06-8.73h-2.36v-1.8a3.34,3.34,0,0,0,1.76-.64,5.54,5.54,0,0,0,1.56-1.63,6.43,6.43,0,0,0,.93-2.21h1.51v4.48H187v1.67l-4.92.06L182,97.74a9.44,9.44,0,0,0,.21,2.12,2.84,2.84,0,0,0,.7,1.41,1.85,1.85,0,0,0,1.36.5,3,3,0,0,0,1.52-.45,4.7,4.7,0,0,0,1.49-1.47l1.09,1a8.61,8.61,0,0,1-1.54,1.76,5.9,5.9,0,0,1-1.47.94,5.39,5.39,0,0,1-1.28.39A7.58,7.58,0,0,1,183.18,104Z" transform="translate(-33.5 -36.95)"/></svg>